<?xml version="1.0" encoding="utf-8"?>
<svg width="403" height="93" viewBox="0 0 403 93" fill="none" xmlns="http://www.w3.org/2000/svg">
<path d="M31.2418 28.1168H44.2387V24.5384H40.4389V13.0982H45.7242V9.71485H40.0507V6.99919C40.0507 3.89344 41.1108 2.98572 42.5515 2.98572C42.8651 2.98572 43.1786 3.06074 43.3727 3.14326C42.9845 3.49585 42.7083 4.20852 42.7083 4.87618C42.7083 6.68412 43.9251 7.66686 45.7616 7.66686C47.6428 7.66686 48.9343 6.33153 48.9343 4.5611C48.9343 2.28055 47.2098 0.630152 42.9472 0.630152C37.9381 0.630152 33.8247 3.54086 33.8247 8.96467V9.71485H30.5774V13.0982H33.8247V24.5459H31.2418V28.1168ZM51.4799 28.5519C54.339 28.5519 56.4144 27.5317 57.7058 24.3434H57.8999C58.3329 27.2916 60.1693 28.5519 62.6329 28.5519C65.6488 28.5519 67.1343 27.0215 67.7988 23.5932L65.6488 23.0456C65.3352 24.621 64.9023 25.0111 64.5141 25.0111C64.0438 25.0111 63.6556 24.8535 63.6556 23.9908V15.9264C63.6556 12.0704 61.8565 9.0847 55.7126 9.0847C51.017 9.0847 46.4782 10.6601 46.4782 14.2384C46.4782 15.8513 47.4935 17.2242 49.6882 17.2242C51.3679 17.2242 52.7042 16.1664 52.7042 14.7111C52.7042 13.7658 52.3906 13.1357 51.8457 12.6631C52.4727 12.3855 53.2566 12.273 53.921 12.273C56.071 12.273 57.1683 13.1807 57.1683 15.5363V17.0741C57.1683 17.4267 57.0862 17.4642 55.0184 17.7418C49.9271 18.4095 48.0907 19.3172 46.9933 20.4124C46.2095 21.2001 45.7018 22.3404 45.7018 23.5632C45.6869 26.669 48.2325 28.5519 51.4799 28.5519ZM54.5705 24.8535C52.9655 24.8535 52.3384 23.7883 52.3384 22.693C52.3384 21.2001 53.0401 20.1349 55.3916 19.7073C56.3696 19.5122 56.8025 19.4747 57.1534 19.3922V20.6525C57.1534 23.1656 56.2949 24.8535 54.5705 24.8535ZM88.8953 14.0809C88.425 11.1327 86.82 9.0847 83.4532 9.0847C79.9297 9.0847 78.0111 11.5228 77.0332 14.471V9.5123H68.3064V13.0907H70.8893V24.5384H68.3064V28.1168H79.1458V24.5384H77.5035V17.2242C77.5035 14.9811 78.8323 13.2932 80.3253 13.2932C80.9897 13.2932 81.46 13.4883 81.8109 13.8408C82.3558 14.3885 82.5947 15.2962 82.5947 16.474V24.5384H80.8703V28.1168H90.8512V24.5384H89.2089V17.2242C89.2089 14.9811 90.5377 13.2932 92.0307 13.2932C92.6951 13.2932 93.1654 13.4883 93.5163 13.8408C94.0612 14.3885 94.3001 15.2962 94.3001 16.474V24.5384H92.5682V28.1168H103.445V24.5384H100.899V15.9264C100.899 12.0329 99.369 9.0847 95.1437 9.0847C91.7918 9.0847 89.9106 11.2902 88.8953 14.0809ZM110.656 7.31427C112.963 7.31427 114.568 5.66387 114.568 3.57837C114.568 1.53787 113 0 110.656 0C108.35 0 106.745 1.6504 106.745 3.7359C106.737 5.7839 108.305 7.31427 110.656 7.31427ZM104.781 28.1168H117.106V24.5384H114.247V9.5198H104.774V13.0982H107.633V24.5459H104.774V28.1168H104.781ZM118.36 28.1168H130.685V24.5384H127.826V0.90772H118.353V4.48609H121.212V24.5459H118.353V28.1168H118.36ZM134.328 26.939C132.335 26.939 131.044 28.4769 131.044 30.5549C131.044 33.1505 132.925 35.0785 136.643 35.0785C141.577 35.0785 143.57 31.5001 145.25 27.5692L151.513 13.0982H153.708V9.5198H145.526V13.0982H147.758L144.391 21.9878L140.278 13.0982H142.943V9.5198H130.618V13.0982H133.007L140.913 28.6344C139.815 31.1475 138.837 31.8602 137.195 31.9802C137.426 31.5076 137.546 30.96 137.546 30.4049C137.538 28.7094 136.523 26.939 134.328 26.939Z" fill="black"/>
<path d="M0 77.3137H22.7688V70.4871H17.1699V54.1556C17.1699 46.5863 22.1268 41.8827 26.9941 41.8827C28.9201 41.8827 30.4803 42.4378 31.5852 43.6381C33.0558 45.116 33.7874 47.5165 33.7874 50.5548V70.4871H28.0915V77.3137H50.9573V70.4871H44.4402V47.9741C44.4402 39.4821 40.2149 33.9458 32.4138 33.9458C25.9863 33.9458 21.3056 37.4491 17.1699 44.8309V0.885254H0V8.07949H6.5171V70.4871H0V77.3137ZM63.6331 77.9589C69.4187 77.9589 74.9279 75.1007 77.496 69.6544H77.9588C78.235 75.3783 82.0871 77.7714 86.499 77.7714C91.5529 77.7714 94.7629 75.2808 96.786 69.1893L93.0235 67.4339C92.1949 70.0145 91.0975 71.2148 89.9031 71.2148C88.0667 71.2148 87.3351 70.3821 87.3351 68.3566V47.6966C87.3351 38.7469 82.1916 33.8557 71.173 33.8557C61.2592 33.8557 52.622 37.8242 52.622 45.0184C52.622 48.0642 54.7347 50.9224 58.7733 50.9224C62.3566 50.9224 64.6484 48.5218 64.6484 45.5736C64.6484 43.5406 63.6406 41.7926 62.17 40.9599C64.096 39.8497 66.119 39.3921 68.5975 39.3921C74.1068 39.3921 76.6748 41.5151 76.6748 46.9614V51.1174C76.6748 52.5052 75.9432 52.5953 70.7027 53.3304C61.7071 54.6208 57.2056 56.0086 54.0852 59.1443C51.9725 61.2674 50.9647 63.848 50.9647 66.8037C50.9573 73.4353 55.9216 77.9589 63.6331 77.9589ZM68.59 71.2223C64.1856 71.2223 62.2521 68.5441 62.2521 64.8532C62.2521 59.962 64.6409 58.4842 72.5391 57.1939C74.8384 56.8263 75.8462 56.6387 76.6748 56.2712V62.2651C76.6673 67.5314 72.6287 71.2223 68.59 71.2223ZM91.3588 77.3137H114.128V70.4871H108.529V54.1556C108.529 46.5863 113.486 41.8827 118.263 41.8827C120.286 41.8827 121.847 42.4378 122.944 43.6381C124.415 45.116 125.146 47.5165 125.146 50.5548V70.4871H119.45V77.3137H142.316V70.4871H135.799V47.9741C135.799 39.4821 131.574 33.9458 123.773 33.9458C116.89 33.9458 112.112 38.0042 108.073 45.5736V34.5909H91.3588V41.4176H97.7863V70.4871H92.1053V77.3137H91.3588ZM158.112 78.2365C164.353 78.2365 169.221 74.7331 172.162 68.4541V77.3137H188.503V70.4871H182.441V1.63544H164.809V8.82968H171.699V41.23C169.034 36.8039 164.906 33.8482 158.754 33.8482C154.253 33.8482 150.401 35.5061 147.37 38.4618C143.511 42.4303 141.129 49.257 141.129 56.4512C141.129 63.2778 143.055 69.6469 147.094 73.7054C149.848 76.481 153.708 78.2365 158.112 78.2365ZM162.338 71.4098C156.739 71.4098 152.79 66.061 152.79 56.0911C152.79 46.2187 156.007 40.5849 162.338 40.5849C169.131 40.5849 172.162 47.6891 172.162 55.9036C172.162 65.4084 167.757 71.4098 162.338 71.4098ZM194.199 77.9589C190.437 77.9589 187.772 81.0046 187.772 84.6955C187.772 89.6767 191.534 93 197.872 93C205.86 93 211.003 88.1089 216.05 76.2035L230.651 41.4176H235.974V34.5909H217.886V41.4176H223.574L213.847 66.2411L204.113 41.4176H211.003V34.5909H186.764V41.4176H192.549L208.346 77.4938C205.501 84.7856 203.202 86.631 199.529 87.2762C199.895 86.541 200.261 85.2432 200.261 84.1404C200.261 81.0947 198.059 77.9589 194.199 77.9589ZM278.765 45.0184C278.033 37.6366 273.994 33.9458 267.559 33.9458C261.221 33.9458 256.264 38.0042 252.226 45.5736V34.5909H235.519V41.4176H241.946V70.4871H235.519V77.3137H257.832V70.4871H252.689V54.1556C252.689 46.5863 257.743 41.8827 262.057 41.8827C263.983 41.8827 265.268 42.4378 266.372 43.4506C267.843 44.9284 268.388 47.419 268.388 50.5548V70.4871H263.244V77.3137H284.274V70.4871H279.13V54.1556C279.13 46.5863 284.274 41.8827 288.499 41.8827C290.336 41.8827 291.709 42.4378 292.724 43.4506C294.195 44.9284 294.837 47.419 294.837 50.5548V70.4871H289.694V77.3137H312.007V70.4871H305.579V47.9741C305.579 39.4821 301.63 33.9458 294.008 33.9458C287.768 33.9458 282.99 37.6366 278.765 45.0184ZM324.675 77.9589C330.461 77.9589 335.97 75.1007 338.538 69.6544H339.001C339.277 75.3783 343.137 77.7714 347.541 77.7714C352.595 77.7714 355.805 75.2808 357.828 69.1893L354.066 67.4339C353.237 70.0145 352.14 71.2148 350.945 71.2148C349.109 71.2148 348.37 70.3821 348.37 68.3566V47.6966C348.37 38.7469 343.226 33.8557 332.208 33.8557C322.294 33.8557 313.657 37.8242 313.657 45.0184C313.657 48.0642 315.769 50.9224 319.808 50.9224C323.391 50.9224 325.683 48.5218 325.683 45.5736C325.683 43.5406 324.675 41.7926 323.205 40.9599C325.131 39.8497 327.154 39.3921 329.632 39.3921C335.142 39.3921 337.71 41.5151 337.71 46.9614V51.1174C337.71 52.5052 336.978 52.5953 331.745 53.3304C322.749 54.6208 318.248 56.0086 315.127 59.1443C313.015 61.2674 312.007 63.848 312.007 66.8037C312.007 73.4353 316.964 77.9589 324.675 77.9589ZM329.632 71.2223C325.228 71.2223 323.294 68.5441 323.294 64.8532C323.294 59.962 325.683 58.4842 333.581 57.1939C335.873 56.8263 336.888 56.6387 337.717 56.2712V62.2651C337.717 67.5314 333.678 71.2223 329.632 71.2223ZM352.043 77.3137H374.811V70.4871H369.213V54.1556C369.213 46.5863 374.169 41.8827 378.947 41.8827C380.97 41.8827 382.53 42.4378 383.628 43.6381C385.098 45.116 385.83 47.5165 385.83 50.5548V70.4871H380.134V77.3137H403V70.4871H396.483V47.9741C396.483 39.4821 392.258 33.9458 384.456 33.9458C377.574 33.9458 372.796 38.0042 368.757 45.5736V34.5909H352.05V41.4176H358.478V70.4871H352.797V77.3137H352.043Z" fill="black"/>
<path d="M400.619 67.2014C400.536 67.0139 400.432 66.8563 400.29 66.7138C400.156 66.5787 399.991 66.4662 399.805 66.3837C399.618 66.3012 399.417 66.2637 399.215 66.2637C399.006 66.2637 398.804 66.3012 398.618 66.3837C398.431 66.4662 398.267 66.5712 398.125 66.7138C397.983 66.8488 397.879 67.0139 397.797 67.2014C397.715 67.3889 397.677 67.5915 397.677 67.8015C397.677 68.0116 397.715 68.2066 397.797 68.3942C397.879 68.5817 397.983 68.7393 398.125 68.8743C398.267 69.0093 398.424 69.1144 398.618 69.1969C398.804 69.2794 399.006 69.3169 399.215 69.3169C399.424 69.3169 399.626 69.2794 399.805 69.1969C399.991 69.1219 400.148 69.0093 400.29 68.8743C400.424 68.7393 400.536 68.5817 400.619 68.3942C400.701 68.2066 400.738 68.0116 400.738 67.8015C400.738 67.5915 400.701 67.3889 400.619 67.2014ZM400.395 68.3042C400.327 68.4617 400.238 68.5967 400.118 68.7168C399.999 68.8368 399.865 68.9268 399.715 68.9943C399.558 69.0619 399.394 69.0919 399.215 69.0919C399.036 69.0919 398.864 69.0619 398.707 68.9943C398.551 68.9268 398.416 68.8368 398.297 68.7168C398.177 68.5967 398.088 68.4617 398.021 68.3042C397.953 68.1466 397.924 67.9816 397.924 67.8015C397.924 67.6215 397.953 67.4565 398.021 67.2914C398.088 67.1339 398.177 66.9989 398.297 66.8788C398.416 66.7588 398.551 66.6688 398.707 66.6013C398.864 66.5337 399.028 66.5037 399.215 66.5037C399.394 66.5037 399.558 66.5337 399.715 66.6013C399.872 66.6688 400.006 66.7588 400.118 66.8788C400.238 66.9989 400.327 67.1339 400.395 67.2914C400.462 67.449 400.499 67.6215 400.499 67.8015C400.499 67.9816 400.469 68.1466 400.395 68.3042ZM400.096 68.6493L399.655 67.9291C399.76 67.8916 399.842 67.8316 399.909 67.749C399.977 67.6665 400.006 67.569 400.006 67.449C400.006 67.3439 399.984 67.2539 399.947 67.1864C399.902 67.1114 399.85 67.0589 399.775 67.0139C399.708 66.9763 399.626 66.9388 399.544 66.9238C399.454 66.9088 399.372 66.8938 399.29 66.8938H398.536V68.6493H399.013V68.0041H399.208L399.544 68.6493H400.096ZM399.424 67.5915C399.379 67.629 399.32 67.644 399.26 67.644H399.006V67.2764H399.26C399.312 67.2764 399.364 67.2914 399.417 67.3139C399.469 67.3439 399.491 67.3814 399.491 67.4415C399.499 67.509 399.476 67.5615 399.424 67.5915Z" fill="black"/>
</svg>
